<?xml version="1.0" encoding="UTF-8" standalone="no"?>
<!-- Created with Inkscape (http://www.inkscape.org/) -->

<svg
   width="183.47678mm"
   height="156.05363mm"
   viewBox="0 0 183.47678 156.05363"
   version="1.1"
   id="svg5"
   xml:space="preserve"
   inkscape:version="1.2.2 (732a01da63, 2022-12-09)"
   sodipodi:docname="FxTracker_icon.svg"
   inkscape:export-filename="FxTracker_icon_gradient.svg"
   inkscape:export-xdpi="96"
   inkscape:export-ydpi="96"
   xmlns:inkscape="http://www.inkscape.org/namespaces/inkscape"
   xmlns:sodipodi="http://sodipodi.sourceforge.net/DTD/sodipodi-0.dtd"
   xmlns="http://www.w3.org/2000/svg"
   xmlns:svg="http://www.w3.org/2000/svg"><sodipodi:namedview
     id="namedview7"
     pagecolor="#ffffff"
     bordercolor="#000000"
     borderopacity="0.25"
     inkscape:showpageshadow="2"
     inkscape:pageopacity="0.0"
     inkscape:pagecheckerboard="0"
     inkscape:deskcolor="#d1d1d1"
     inkscape:document-units="mm"
     showgrid="false"
     inkscape:zoom="0.64693624"
     inkscape:cx="639.16654"
     inkscape:cy="699.45069"
     inkscape:window-width="2560"
     inkscape:window-height="1361"
     inkscape:window-x="-9"
     inkscape:window-y="-9"
     inkscape:window-maximized="1"
     inkscape:current-layer="layer1" /><defs
     id="defs2"><linearGradient
       id="linearGradient12985"
       inkscape:swatch="solid"><stop
         style="stop-color:#000000;stop-opacity:1;"
         offset="0"
         id="stop12983" /></linearGradient></defs><g
     inkscape:label="Warstwa 1"
     inkscape:groupmode="layer"
     id="layer1"
     transform="translate(-16.282475,-67.683447)"><g
       id="g4877"
       style="fill:#000000;fill-opacity:1;stroke:none;stroke-opacity:1"
       inkscape:export-filename="FxTracker_icon_gradient.svg"
       inkscape:export-xdpi="96"
       inkscape:export-ydpi="96"><path
         style="fill:#000000;fill-opacity:1;stroke:none;stroke-width:0.264583;stroke-opacity:1"
         d="m 77.648003,148.28311 c 8.845853,3.57377 5.93631,16.15609 -2.45813,16.88157 1.632344,-5.66586 2.544526,-11.46296 2.45813,-16.88157 z"
         id="path2609"
         sodipodi:nodetypes="ccc" /><path
         style="fill:#000000;fill-opacity:1;fill-rule:nonzero;stroke:none;stroke-width:0.264583;stroke-opacity:1"
         d="m 16.282476,100.4299 c 12.118318,5.7061 25.307447,8.91365 40.284432,7.94953 12.556346,-24.189574 61.020612,-63.049628 115.393772,-24.242685 9.33496,0.03842 18.65327,0.343155 27.79857,3.416078 -16.48289,4.241927 -25.11955,4.613051 -68.8638,22.303917 1.3004,8.47728 0.79727,14.24927 0.20788,19.89185 15.52761,2.66194 22.35765,14.84361 19.69213,26.9753 -1.20271,-5.42243 -3.51257,-9.34695 -6.34919,-12.5588 -4.78276,5.61221 -11.33091,7.46586 -19.09969,6.72074 5.89732,-2.77704 9.74552,-6.49082 12.27258,-10.80854 -1.7392,-1.9124 -5.06347,-1.99587 -7.97282,-2.5581 -8.78884,5.76043 -16.21304,-0.69128 -17.04931,-1.2525 4.43133,-0.52234 8.0613,-1.31181 9.32983,-2.88842 3.56013,-15.57551 1.08112,-29.24393 -5.71292,-41.549707 -26.195162,22.688797 -47.404873,24.126997 -69.922631,24.551517 15.592962,7.81745 36.304814,14.09542 64.035371,-2.31198 0.0296,-0.23736 -2.23202,7.40454 -12.561772,12.67021 -2.470405,11.7916 -12.06723,14.61892 -13.971579,15.29102 2.355459,-2.99644 4.317548,-6.64934 4.82589,-9.57948 l -0.01807,-2.02434 c -0.867704,0.72008 -4.520666,1.1959 -6.447488,0.80562 -3.590694,5.07149 -6.779487,10.94606 -9.670369,16.95766 0.142446,3.93117 -1.738147,24.71535 -6.909042,34.43584 l -7.345861,14.04315 c 4.155895,1.24594 8.422226,2.23419 12.985082,2.53055 21.597937,-10.28768 46.085969,-16.54193 66.984079,-17.22438 15.21784,14.53452 32.8605,30.19549 49.29377,41.76312 -9.63116,-0.72124 -19.40093,-2.82849 -29.5743,-8.97198 -14.88775,8.27278 -50.37355,14.55915 -80.196715,-7.95679 -13.666251,-0.0385 -24.479528,-3.36148 -33.025658,-8.16355 4.358714,-5.76259 8.618691,-11.53928 11.105429,-17.5693 -8.496032,-16.32767 -9.835274,-34.3148 -6.969913,-52.95326 -19.750604,-8.9957 -25.539529,-18.22744 -32.547687,-27.69229 z"
         id="path233"
         sodipodi:nodetypes="ccccccccccccccccccccccccccccccccc" /></g></g></svg>
